<svg xmlns="http://www.w3.org/2000/svg" viewBox="0 0 48 48" aria-hidden="true" role="img"
    class="iconify iconify--logos" width="31.88" height="32"
    preserveAspectRatio="xMidYMid meet"
    >
    <defs>
        <style>.cls-1{fill:#dad7e5}.cls-3{fill:#919191}.cls-4{fill:#db5669}</style>
        
    </defs>
    <g id="
    logo" data-name="logo">
        <path class=" cls-1" d=" M47 37v10H1V1h10v36h36z" />
        <path d=" M47 37v8H12a8 8 0 0 1-8-8V1h7v36z" style=" fill:#edebf2" />
        <path class=" cls-1" d=" M8.71 40.71 2.42 47H1v-1.42l6.29-6.29a1 1 0 0 1 1.42 1.42z" />
        <path class=" cls-3"
            d=" M11 5v2H7a1 1 0 0 1 0-2zM11 12H7a1 1 0 0 1 0-2h4zM11 17H7a1 1 0 0 1 0-2h4zM11 20v2H7a1 1 0 0 1 0-2zM11 25v2H7a1 1 0 0 1 0-2zM11 30v2H7a1 1 0 0 1 0-2zM43 37v4a1 1 0 0 1-2 0v-4zM38 37v4a1 1 0 0 1-2 0v-4zM33 37v4a1 1 0 0 1-2 0v-4zM28 37v4a1 1 0 0 1-2 0v-4zM23 37v4a1 1 0 0 1-2 0v-4zM18 37v4a1 1 0 0 1-2 0v-4z" />
        <path class=" cls-4"
            d=" M40 20a13.43 13.43 0 0 1-8.46 12.38c-1.61.57-2.3-.18-3.54-.18-1.05 0-1.26.38-2.35.38C22.3 32.58 16 27.34 16 20a10.51 10.51 0 0 1 6.1-9.7 5 5 0 0 1 4-.07c2.07.83 1.92-.11 1.92.77 2 0 3.32.21 4.72-1.07C35.41 10.37 40 14 40 20z" />
        <path
            d=" M35.49 30c-2.73 1.23-2.81.21-4.49.21-1.05 0-1.26.38-2.35.38C25.3 30.58 19 25.34 19 18a10.38 10.38 0 0 1 3.3-7.78c2.54-1.1 3.61.39 5.7.39V13h2a4 4 0 0 0 3.79-2.74l.17.07c7.87 3.86 7.7 14.08 1.53 19.67z"
            style=" fill:#f26674" />
        <path d=" M34 5c0 2 .24 3.53-1.28 4.93S30 11 28 11V9a4 4 0 0 1 4-4z" style=" fill:#9dcc6b" />
        <path d=" M34 5c0 1.32.11 2.65-1.28 3.93S30 10 28 10V9a4 4 0 0 1 4-4z" style=" fill:#b5e08c" />
        <path
            d=" M27 14c0-8.35-.6-10.81 2.29-13.71a1 1 0 0 1 1.42 1.42C28.55 3.86 29 5.32 29 14a1 1 0 0 1-2 0z"
            style=" fill:#a87e6b" />
        <path class=" cls-4" d=" M30 15h-4a1 1 0 0 1 0-2h4a1 1 0 0 1 0 2z" />
    </g>
</svg>